inDegrees=yes
name=ik_lifting_orientations
DataType=double
version=3
OpenSimVersion=4.5-2024-01-10-34fd6af
endheader
time	pelvis_tilt	pelvis_list	pelvis_rotation	pelvis_tx	pelvis_ty	pelvis_tz	hip_flexion_r	hip_adduction_r	hip_rotation_r	knee_angle_r	knee_angle_r_beta	ankle_angle_r	subtalar_angle_r	mtp_angle_r	hip_flexion_l	hip_adduction_l	hip_rotation_l	knee_angle_l	knee_angle_l_beta	ankle_angle_l	subtalar_angle_l	mtp_angle_l	lumbar_extension	lumbar_bending	lumbar_rotation	arm_flex_r	arm_add_r	arm_rot_r	elbow_flex_r	pro_sup_r	wrist_flex_r	wrist_dev_r	arm_flex_l	arm_add_l	arm_rot_l	elbow_flex_l	pro_sup_l	wrist_flex_l	wrist_dev_l
0.02	0.002385241112621909	-0.003828787372591848	-89.75854487780236	0	0.9399999998679526	0	46.09983706367544	-11.60628633622611	0	61.58853284112716	1.074922679550327	-5.796195740331112	0	0	46.09983706367544	-11.60628633622611	0	61.58853284112716	1.074922679550327	-5.796195740331112	0	0	-0.009162486978303502	0.0003359189506132343	0.01330674788004746	-0.2193347955056906	-0.05455904930017777	-0.0104170767562114	0.4717240851369165	0.02655522292267998	0	0	0	-10.67696369229696	0	89.9959441699079	0.02655522292267998	0	0
0.03	0.006990499245124126	-0.002266896132598764	-89.75068544823675	0	0.9399999998679526	0	46.07969510257372	-11.51744075916438	0	61.56546111595694	1.074520001981991	-5.741907098203329	0	0	46.07969510257372	-11.51744075916438	0	61.56546111595694	1.074520001981991	-5.741907098203329	0	0	-0.07530872991987898	-0.0008282779968779162	-0.0008704695060161863	-0.1645916460056585	-0.06450105045059662	0.01936425030167052	0.5003776758211486	0.02620917131351902	0	0	0	-10.71877833954771	0	89.99599583602293	0.02620917131351902	0	0
0.04	0.00581984953327237	0.0107374598627244	-89.69337345266085	0	0.9399999998679526	0	46.05539273836629	-11.41083792724529	0	61.53761185050158	1.074033940605533	-5.676953588710323	0	0	46.05539273836629	-11.41083792724529	0	61.53761185050158	1.074033940605533	-5.676953588710323	0	0	-0.1267080443642975	0.001553715715350022	-0.05939204849419175	-0.06066287354865983	-0.03909393583765215	-0.0396355510699	0.4717661935189194	0.02579139406010212	0	0	0	-10.76927744239564	0	89.99605821090273	0.02579139406010212	0	0
0.05	-0.001943021297416493	-0.001008240271483708	-89.6951434044621	0	0.9399999998679526	0	46.0043251294715	-11.22670513554852	0	61.47797915969724	1.072993153809174	-5.572603538299	0	0	46.0043251294715	-11.22670513554852	0	61.47797915969724	1.072993153809174	-5.572603538299	0	0	-0.1931183004681659	0.01076000007640457	0.0117296057552778	0.00720035780187583	-0.03970858270180859	-0.1389784417189779	0.4928926621213629	0.02488988772970359	0	0	0	-10.88001493443135	0	89.99619280735455	0.02488988772970359	0	0
0.06	-0.009359777513987744	0.003390058569272558	-89.69234579145623	0	0.9399999998679526	0	46.00417919639288	-11.2260815706701	0	61.47781061037368	1.072990212068526	-5.572224074664452	0	0	46.00417919639288	-11.2260815706701	0	61.47781061037368	1.072990212068526	-5.572224074664452	0	0	-0.2054478153338938	0.01613065135759612	-0.04784171477180537	0.06143346664429845	0.0274880786927416	-0.1489047192851309	0.4563670574338983	0.02488736181333471	0	0	0	-10.88032172639834	0	89.99619318447829	0.02488736181333471	0	0
0.07000000000000001	0.0005595479581198728	-0.001698449659539764	-89.69703838231042	0	0.9399999998679526	0	45.98265080250446	-11.14367559356207	0	61.45278344764476	1.072553405676473	-5.524208144007183	0	0	45.98265080250446	-11.14367559356207	0	61.45278344764476	1.072553405676473	-5.524208144007183	0	0	-0.2538332731521914	0.004196885501268282	-0.119687227148075	0.1232891060713476	0.06232425293792229	-0.1209691707459492	0.4738900564256976	0.02450967408677195	0	0	0	-10.9265513114614	0	89.99624957391099	0.02450967408677195	0	0
0.08	-0.002941749752760149	-0.002197883352660147	-89.62961313279912	0	0.9399999998679526	0	45.95900944293312	-11.05903793980085	0	61.42512321341282	1.072070643517253	-5.476107428820855	0	0	45.95900944293312	-11.05903793980085	0	61.42512321341282	1.072070643517253	-5.476107428820855	0	0	-0.2515271732609103	0.00795868522355027	-0.181672800884556	0.1072489490946145	0.1078577678435734	-0.1864246791687169	0.4824008226932376	0.02409114662791322	0	0	0	-10.97806189959534	0	89.99631206078156	0.02409114662791322	0	0
